# xmcd CD database file
#
# Track frame offsets:
#	150
#	15900
#	34928
#	50695
#	66710
#
# Disc length: 1123 seconds
#
# Revision: 1
# Processed by: cddbd v1.5.2PL0 Copyright (c) Steve Scherf et al.
# Submitted via: CDex 1.70beta2
#
DISCID=41046105
DTITLE=Friends - Crazy, But Never Over
DYEAR=1995
DGENRE=Country
TTITLE0=Tell Me All About You
TTITLE1=Unforgotten Days
TTITLE2=One Night Stand
TTITLE3=Crazy, But Never Over
TTITLE4=Someday 'Cross The U.S.A.
EXTD=YEAR: 1995
EXTT0=
EXTT1=
EXTT2=
EXTT3=
EXTT4=
PLAYORDER=
